<?xml version="1.0" encoding="UTF-8"?>
<!-- Generator: Adobe Illustrator 15.0.2, SVG Export Plug-In  -->
<!DOCTYPE svg PUBLIC "-//W3C//DTD SVG 1.1//EN" "http://www.w3.org/Graphics/SVG/1.1/DTD/svg11.dtd">
<svg version="1.1" xmlns="http://www.w3.org/2000/svg" xmlns:xlink="http://www.w3.org/1999/xlink" xmlns:a="http://ns.adobe.com/AdobeSVGViewerExtensions/3.0/" x="0px" y="0px" width="73px" height="65px" viewBox="1 17.478 73 65" enable-background="new 1 17.478 73 65" xml:space="preserve">
<defs>
</defs>
<path fill="#123A63" d="M26.599,31.788c0.818,1.417,2.631,1.902,4.048,1.084l18.817-10.865c1.418-0.818,1.905-2.63,1.084-4.047  c-0.816-1.417-2.629-1.903-4.047-1.084L27.684,27.74C26.267,28.558,25.781,30.371,26.599,31.788  C26.599,31.788,26.386,31.419,26.599,31.788z"/>
<path fill="#123A63" d="M43.356,60.98c0.817,1.418,2.632,1.902,4.048,1.084l18.819-10.865c1.416-0.817,1.902-2.629,1.084-4.047  c-0.816-1.416-2.631-1.902-4.047-1.084L44.441,56.934C43.024,57.751,42.539,59.564,43.356,60.98  C43.356,60.98,43.143,60.611,43.356,60.98z"/>
<path fill="#123A63" d="M0.596,66.261c-0.024-0.041-0.063-0.109-0.093-0.162C0.522,66.134,0.551,66.185,0.596,66.261z"/>
<path fill="#123A63" d="M0.615,66.294c-0.008-0.016-0.012-0.021-0.019-0.033C0.606,66.279,0.615,66.294,0.615,66.294z"/>
<path fill="#123A63" d="M0.502,66.099C0.454,66.015,0.468,66.041,0.502,66.099L0.502,66.099z"/>
<path fill="#123A63" d="M61.576,43.335L50.85,24.757l-18.584,10.73l3.868,6.701L2.809,59.629c-2.775,1.604-3.468,4.457-2.194,6.666  c1.275,2.209,4.097,2.879,6.872,1.275l31.73-20.042l3.774,6.537L61.576,43.335z"/>
<path fill="#123A63" d="M69.492,78.32v-3.273c0-1.396-0.963-2.529-2.148-2.529H38.089c-1.186,0-2.147,1.133-2.147,2.529v3.273  h-3.079v3.256h39.67V78.32H69.492z"/>
<path display="none" fill="#123A63" d="M52.262,0c0.939,0,1.88,0,2.82,0c0.019,0.011,0.036,0.031,0.057,0.033  c0.45,0.052,0.902,0.088,1.352,0.154c0.476,0.071,0.949,0.158,1.418,0.261c0.869,0.189,1.721,0.444,2.545,0.777  c0.556,0.225,1.11,0.456,1.646,0.723c0.948,0.472,1.86,1.01,2.699,1.66c0.546,0.423,1.095,0.848,1.597,1.319  c0.539,0.507,1.041,1.058,1.528,1.615c0.382,0.437,0.735,0.901,1.067,1.377c0.712,1.02,1.308,2.105,1.782,3.257  c0.339,0.822,0.622,1.663,0.834,2.526c0.175,0.716,0.323,1.438,0.391,2.173c0.038,0.423,0.109,0.845,0.111,1.268  c0.004,0.751-0.02,1.503-0.058,2.253c-0.024,0.462-0.074,0.927-0.153,1.381c-0.094,0.541-0.226,1.075-0.353,1.609  c-0.254,1.069-0.646,2.092-1.116,3.081c-0.243,0.511-0.523,1.004-0.806,1.495c-0.62,1.083-1.38,2.064-2.222,2.981  c-0.366,0.399-0.764,0.774-1.168,1.139c-0.425,0.384-0.859,0.759-1.315,1.104c-0.875,0.665-1.813,1.236-2.794,1.731  c-0.387,0.193-0.784,0.364-1.183,0.536c-0.766,0.334-1.56,0.593-2.363,0.813c-1.051,0.286-2.12,0.469-3.203,0.569  c-0.449,0.042-0.902,0.058-1.354,0.061c-0.553,0.005-1.107,0.003-1.659-0.032c-0.501-0.031-1-0.101-1.497-0.177  c-0.514-0.078-1.029-0.157-1.532-0.286c-0.674-0.171-1.343-0.369-2.001-0.594c-0.538-0.184-1.065-0.404-1.582-0.642  c-1.055-0.483-2.063-1.052-2.99-1.75c-0.638-0.48-1.256-0.99-1.858-1.516c-0.353-0.307-0.669-0.655-0.979-1.006  c-0.375-0.42-0.737-0.852-1.086-1.294c-0.66-0.837-1.214-1.744-1.699-2.69c-0.215-0.421-0.402-0.854-0.586-1.289  c-0.325-0.766-0.581-1.554-0.783-2.358c-0.193-0.768-0.35-1.542-0.419-2.332c-0.043-0.492-0.106-0.984-0.113-1.479  c-0.008-0.631,0.023-1.264,0.058-1.895c0.021-0.409,0.052-0.82,0.125-1.222c0.115-0.646,0.259-1.288,0.412-1.927  c0.268-1.123,0.693-2.188,1.196-3.225c0.425-0.874,0.933-1.698,1.493-2.492c0.463-0.653,0.975-1.269,1.515-1.856  c0.31-0.337,0.645-0.653,0.986-0.958c0.436-0.389,0.878-0.769,1.337-1.127c0.767-0.604,1.592-1.123,2.454-1.578  c0.522-0.276,1.062-0.524,1.604-0.757c0.921-0.396,1.873-0.708,2.85-0.932c0.53-0.12,1.068-0.216,1.605-0.301  c0.423-0.067,0.851-0.102,1.275-0.153C52.185,0.03,52.223,0.012,52.262,0z M58.934,9.583c0.384-0.079,0.663-0.312,0.891-0.618  c0.021-0.027,0.065-0.044,0.102-0.048c0.245-0.028,0.408-0.207,0.415-0.424c0.002-0.041,0.021-0.088,0.047-0.121  c0.125-0.176,0.255-0.344,0.508-0.33c0.089,0.005,0.179-0.01,0.285-0.018c-0.005-0.102-0.011-0.209-0.017-0.328  c0.132-0.067,0.229-0.167,0.168-0.353c-0.006-0.015,0.047-0.061,0.08-0.075c0.144-0.062,0.183-0.141,0.135-0.289  c-0.017-0.048-0.033-0.095-0.051-0.142c0.177-0.064,0.259-0.198,0.211-0.327c-0.056-0.146-0.215-0.197-0.406-0.123  c0.002-0.043,0.004-0.082,0.006-0.133c0.113,0.092,0.215,0.105,0.325,0.028c0.104-0.073,0.116-0.192,0.077-0.279  c-0.039-0.083-0.146-0.133-0.213-0.188c0.113-0.041,0.131-0.171,0.096-0.292c-0.039-0.136-0.166-0.172-0.312-0.163  c0.085-0.117,0.115-0.235,0.031-0.352c-0.074-0.104-0.184-0.118-0.303-0.074c0.063-0.295-0.063-0.42-0.36-0.369  c0.025-0.16-0.061-0.308-0.198-0.309c-0.077,0-0.176,0.023-0.226,0.074c-0.051,0.051-0.053,0.148-0.079,0.234  c-0.035-0.025-0.074-0.055-0.12-0.089c0.149-0.05,0.189-0.163,0.156-0.286c-0.02-0.066-0.089-0.151-0.152-0.17  c-0.123-0.035-0.248-0.005-0.318,0.145c0.021-0.212-0.04-0.324-0.189-0.33c-0.069-0.002-0.18,0.007-0.204,0.049  c-0.057,0.096-0.069,0.217-0.104,0.339c-0.025-0.008-0.071-0.021-0.124-0.039c0.137-0.169,0.143-0.263,0.037-0.378  c-0.087-0.094-0.23-0.107-0.331-0.033c-0.104,0.077-0.117,0.22-0.031,0.38c-0.027,0.002-0.052,0.011-0.073,0.005  c-0.025-0.007-0.05-0.025-0.074-0.04c0.104-0.134,0.099-0.289-0.012-0.373c-0.11-0.086-0.294-0.03-0.396,0.106  c-0.084-0.048-0.168-0.136-0.246-0.131c-0.094,0.005-0.183,0.089-0.275,0.141c-0.099-0.155-0.143-0.174-0.301-0.143  c-0.063-0.102-0.103-0.224-0.182-0.269c-0.08-0.044-0.204-0.011-0.313-0.011c0.024-0.12-0.041-0.221-0.176-0.262  c-0.126-0.039-0.231,0.012-0.304,0.128c-0.01-0.212-0.111-0.312-0.288-0.286c-0.158,0.021-0.229,0.158-0.188,0.365  c-0.038-0.005-0.073-0.01-0.116-0.015c0.109-0.142,0.108-0.323,0.006-0.401c-0.124-0.093-0.304-0.039-0.404,0.122  c-0.121-0.162-0.266-0.205-0.4-0.118c-0.125,0.081-0.125,0.231,0,0.43c-0.049,0.007-0.098,0.013-0.149,0.02  c0.069-0.205,0.017-0.368-0.141-0.393c-0.073-0.013-0.173,0.012-0.231,0.057c-0.057,0.042-0.075,0.133-0.109,0.202  c-0.054-0.038-0.11-0.078-0.168-0.119c0.241-0.312,0.208-0.794-0.148-1.014c-0.188-0.115-0.16-0.248-0.143-0.415  c0.088,0,0.169,0.009,0.247-0.004c0.036-0.007,0.093-0.053,0.095-0.084c0.012-0.142,0.005-0.284,0.005-0.439  c-0.133,0-0.239,0-0.365,0c0-0.125,0-0.236,0-0.343c-0.183,0-0.345,0-0.499,0c-0.017,0.119,0.005,0.262-0.056,0.321  C53.3,1.248,53.157,1.22,53.049,1.229c0,0.172,0,0.334,0,0.515c0.12,0,0.231,0,0.341,0c0.021,0.176,0.033,0.307-0.162,0.401  c-0.121,0.059-0.217,0.219-0.272,0.354c-0.097,0.237-0.041,0.473,0.112,0.676C53,3.208,52.939,3.238,52.88,3.267  c-0.071-0.192-0.2-0.285-0.334-0.241c-0.154,0.051-0.208,0.206-0.138,0.405c-0.06-0.012-0.116-0.023-0.178-0.035  c0.15-0.184,0.156-0.288,0.03-0.399c-0.131-0.116-0.237-0.094-0.401,0.085c-0.078-0.105-0.183-0.199-0.312-0.145  c-0.09,0.037-0.151,0.146-0.214,0.211c-0.023-0.071-0.092-0.126-0.214-0.135c-0.189-0.011-0.23,0.126-0.284,0.281  c-0.096-0.159-0.231-0.172-0.344-0.089c-0.072,0.054-0.096,0.175-0.141,0.266c-0.248-0.139-0.372-0.074-0.415,0.252  c-0.184-0.038-0.222-0.021-0.36,0.146c-0.166-0.213-0.315-0.215-0.506-0.006c-0.042-0.131-0.144-0.165-0.268-0.156  c-0.117,0.008-0.201,0.06-0.214,0.196c-0.135-0.183-0.279-0.226-0.416-0.135c-0.115,0.077-0.111,0.228,0.017,0.418  c-0.063,0.012-0.123,0.021-0.197,0.035c0.075-0.127,0.072-0.239-0.02-0.315c-0.061-0.049-0.162-0.081-0.238-0.07  c-0.127,0.019-0.188,0.123-0.19,0.257c-0.158-0.115-0.337-0.117-0.416,0c-0.032,0.046-0.064,0.119-0.05,0.163  c0.03,0.085,0.094,0.158,0.147,0.242c-0.022,0.012-0.062,0.03-0.103,0.051c-0.028-0.227-0.125-0.323-0.293-0.301  c-0.152,0.02-0.23,0.149-0.204,0.288c-0.106,0.024-0.237,0.02-0.302,0.083c-0.066,0.065-0.067,0.198-0.099,0.304  c-0.147-0.033-0.315,0.059-0.313,0.213c0,0.179,0.123,0.263,0.304,0.273c-0.026,0.035-0.042,0.059-0.061,0.083  c-0.183-0.159-0.341-0.177-0.439-0.05c-0.102,0.131-0.065,0.259,0.109,0.394c-0.185,0.024-0.313,0.157-0.281,0.289  c0.042,0.177,0.192,0.231,0.439,0.157c0,0.034,0,0.067,0,0.102c-0.223-0.062-0.364-0.02-0.41,0.118  c-0.047,0.141,0.021,0.248,0.218,0.341c-0.137,0.246-0.082,0.391,0.176,0.464c-0.072,0.223-0.049,0.271,0.194,0.403  c-0.009,0.107-0.017,0.214-0.023,0.309c0.141,0.009,0.261,0.015,0.381,0.023c0.179,0.014,0.45,0.274,0.461,0.442  c0.015,0.233,0.158,0.385,0.394,0.428c0.05,0.01,0.11,0.03,0.139,0.067c0.222,0.3,0.502,0.513,0.869,0.601  c-0.04,0.175,0.068,0.339,0.222,0.349c0.071,0.005,0.142,0.02,0.242,0.035c-0.082,0.127-0.138,0.212-0.195,0.302  c0.056,0.022,0.095,0.039,0.135,0.056c0.046,0.021,0.089,0.042,0.136,0.06c0.131,0.05,0.151,0.12,0.069,0.234  c-0.16,0.22-0.102,0.413,0.16,0.486c0.377,0.105,0.757,0.196,1.147,0.296c-1.348,0-2.686,0-4.039,0c0,1.651,0,3.292,0,4.941  c-0.728-0.23-1.465-0.26-2.206-0.297c0-0.871,0-1.716,0.003-2.561c0-0.034,0.031-0.078,0.061-0.102  c0.165-0.133,0.162-0.262-0.024-0.366c-0.091-0.052-0.101-0.138-0.042-0.179c0.13-0.094,0.204-0.3,0.423-0.241  c0.005,0.001,0.014-0.011,0.019-0.017c0-0.345,0-0.687,0-1.039c-0.209,0-0.407,0-0.607,0c0.004-0.043,0.018-0.079,0.008-0.106  c-0.063-0.164,0.066-0.292,0.136-0.378c0.128-0.156,0.329-0.254,0.493-0.372c-0.029-0.09-0.052-0.167-0.078-0.243  c-0.036-0.104-0.051-0.227-0.115-0.308c-0.1-0.124-0.229-0.228-0.356-0.323c-0.049-0.036-0.146-0.055-0.195-0.031  c-0.11,0.053-0.202,0.016-0.306-0.011c-0.113-0.028-0.229-0.05-0.346-0.056c-0.172-0.011-0.251-0.127-0.156-0.27  c0.09-0.136,0.021-0.235-0.068-0.307c-0.049-0.038-0.162-0.037-0.223-0.006c-0.114,0.059-0.136,0.202-0.078,0.317  c0.062,0.12-0.022,0.256-0.156,0.262c-0.103,0.005-0.206,0.021-0.309,0.028c-0.143,0.011-0.287,0.017-0.429,0.033  c-0.057,0.006-0.14,0.021-0.157,0.06c-0.057,0.116-0.166,0.148-0.265,0.19c-0.264,0.11-0.222,0.355-0.261,0.566  c-0.005,0.028-0.02,0.072-0.007,0.085c0.052,0.051,0.11,0.091,0.167,0.134c0.072,0.053,0.144,0.107,0.217,0.156  c0.057,0.037,0.148,0.055,0.168,0.104c0.059,0.146,0.089,0.306,0.136,0.479c-0.233,0-0.427,0-0.625,0c0,0.354,0,0.696,0,1.055  c0.061,0,0.116-0.007,0.168,0.003c0.032,0.006,0.064,0.031,0.091,0.056c0.038,0.034,0.063,0.084,0.104,0.11  c0.146,0.089,0.149,0.143,0.007,0.243c-0.166,0.116-0.188,0.293,0.041,0.392c0,0.977,0,1.956,0.002,2.936  c0,0.09-0.052,0.101-0.115,0.122c-0.428,0.148-0.844,0.322-1.211,0.598c-0.338,0.251-0.414,0.493-0.251,0.877  c0.14,0.331,0.273,0.664,0.423,0.989c0.056,0.12,0.127,0.255,0.23,0.326c0.132,0.094,0.303,0.14,0.46,0.188  c0.148,0.045,0.304,0.066,0.462,0.102c0,0.351-0.016,0.69,0.006,1.028c0.013,0.185-0.069,0.246-0.217,0.302  c-0.396,0.149-0.785,0.324-1.106,0.605c-0.078,0.067-0.149,0.204-0.142,0.301c0.024,0.278,0.096,0.551,0.139,0.827  c0.046,0.309,0.119,0.58,0.433,0.75c0.112,0.06,0.156,0.247,0.226,0.381c0.03,0.058,0.044,0.125,0.07,0.199  c0.353-0.282,0.581-0.832,0.117-1.464c0.155-0.071,0.308-0.142,0.475-0.218c0,1.076,0,2.126-0.002,3.177  c0,0.033-0.026,0.08-0.054,0.103c-0.109,0.088-0.125,0.188-0.044,0.298c0.061,0.085,0.072,0.176-0.012,0.237  c-0.102,0.077-0.223,0.13-0.367,0.212c0,0.208-0.006,0.467,0.002,0.727c0.003,0.104-0.044,0.146-0.131,0.162  c-0.145,0.027-0.288,0.051-0.434,0.073c0,0.652,0,1.295,0,1.979c0.209-0.053,0.414-0.073,0.592-0.153  c0.41-0.185,0.805-0.188,1.21,0.004c0.369,0.176,0.745,0.148,1.111-0.018c0.356-0.162,0.709-0.182,1.069-0.015  c0.218,0.102,0.445,0.162,0.689,0.146c0-0.661,0-1.304,0-1.932c-0.206-0.047-0.398-0.092-0.596-0.137c0-0.318,0-0.606,0-0.897  c-0.03-0.004-0.052-0.002-0.068-0.011c-0.096-0.049-0.209-0.082-0.281-0.154c-0.086-0.085-0.054-0.19,0.022-0.286  c0.073-0.092,0.018-0.188-0.063-0.226c-0.094-0.041-0.084-0.102-0.084-0.173c0-1.37,0.002-2.739-0.005-4.109  c0-0.136,0.057-0.192,0.156-0.266c0.271-0.196,0.533-0.406,0.784-0.628c0.064-0.058,0.113-0.176,0.107-0.262  c-0.029-0.395-0.072-0.786-0.131-1.176c-0.014-0.086-0.094-0.195-0.171-0.231c-0.207-0.095-0.431-0.151-0.646-0.23  c-0.037-0.015-0.091-0.056-0.092-0.084c-0.009-0.253-0.004-0.507-0.004-0.79c0.284,0.026,0.551,0.038,0.813,0.081  c0.416,0.067,0.827,0.16,1.242,0.237c0.129,0.023,0.156,0.093,0.156,0.217c-0.005,2.18-0.002,4.358-0.005,6.539  c-0.001,0.407,0.035,0.806,0.147,1.199c0.221,0.777,0.646,1.416,1.284,1.905c0.665,0.51,1.448,0.793,2.231,1.047  c0.581,0.188,1.185,0.317,1.785,0.432c0.492,0.093,0.995,0.149,1.496,0.174c0.646,0.028,1.292,0.024,1.934-0.083  c0.436-0.074,0.878-0.124,1.305-0.232c0.535-0.137,1.068-0.298,1.585-0.493c0.467-0.176,0.928-0.384,1.36-0.63  c0.523-0.298,0.935-0.732,1.234-1.257s0.494-1.089,0.497-1.695c0.009-2.221,0.004-4.439,0.004-6.659  c0-0.104-0.011-0.213,0.005-0.314c0.007-0.051,0.055-0.113,0.101-0.136c0.077-0.038,0.167-0.054,0.254-0.071  c0.376-0.072,0.751-0.15,1.129-0.206c0.223-0.033,0.451-0.028,0.683-0.041c0,0.302,0,0.58,0,0.848  c-0.197,0.059-0.388,0.106-0.574,0.168c-0.27,0.087-0.325,0.173-0.349,0.444c-0.024,0.29-0.039,0.583-0.098,0.867  c-0.046,0.22,0.011,0.385,0.168,0.514c0.254,0.21,0.521,0.402,0.782,0.606c0.035,0.027,0.074,0.081,0.074,0.123  c0.004,1.413,0.004,2.829,0.001,4.243c0,0.039-0.03,0.09-0.062,0.115c-0.103,0.082-0.112,0.18-0.045,0.295  c0.026,0.045,0.03,0.118,0.016,0.17c-0.055,0.181-0.201,0.228-0.387,0.214c0,0.271-0.002,0.529,0.001,0.788  c0.001,0.079-0.011,0.131-0.104,0.146c-0.163,0.027-0.324,0.067-0.497,0.105c0,0.609,0,1.225,0.001,1.838  c0,0.117,0.095,0.111,0.161,0.096c0.194-0.049,0.388-0.103,0.575-0.17c0.324-0.117,0.649-0.147,0.962,0.004  c0.444,0.216,0.876,0.211,1.318,0.001c0.295-0.142,0.602-0.127,0.907-0.03c0.199,0.063,0.396,0.135,0.6,0.191  c0.15,0.043,0.196-0.001,0.196-0.162c0.001-0.55,0-1.1,0-1.65c0-0.043-0.005-0.087-0.009-0.134  c-0.115-0.014-0.224-0.025-0.331-0.039c-0.229-0.03-0.261-0.064-0.261-0.297c0-0.229,0-0.457,0-0.687  c-0.056-0.004-0.091-0.005-0.125-0.007c-0.229-0.014-0.334-0.213-0.229-0.409c0.042-0.079,0.069-0.194-0.04-0.244  c-0.094-0.043-0.087-0.106-0.087-0.182c0.002-0.955,0-1.91,0-2.865c0-0.077,0-0.156,0-0.256c0.098,0.041,0.179,0.073,0.258,0.11  c0.082,0.039,0.162,0.084,0.246,0.127c-0.416,0.46-0.321,1.121,0.093,1.422c0.024-0.045,0.073-0.089,0.071-0.131  c-0.011-0.213,0.11-0.347,0.259-0.471c0.14-0.117,0.313-0.191,0.342-0.418c0.036-0.291,0.117-0.576,0.165-0.866  c0.033-0.199,0.11-0.415-0.111-0.569c-0.072-0.05-0.139-0.112-0.217-0.151c-0.328-0.165-0.661-0.321-0.99-0.486  c-0.045-0.021-0.107-0.072-0.107-0.109c-0.008-0.391-0.005-0.778-0.005-1.164c0.21-0.047,0.407-0.083,0.601-0.137  c0.213-0.059,0.419-0.146,0.52-0.357c0.146-0.313,0.271-0.631,0.402-0.949c0.059-0.14,0.131-0.28,0.151-0.427  c0.042-0.306-0.182-0.48-0.388-0.642c-0.355-0.276-0.771-0.444-1.198-0.58c-0.039-0.012-0.085-0.082-0.085-0.125  c-0.005-0.939-0.004-1.88-0.002-2.819c0-0.04,0.013-0.093,0.04-0.118c0.192-0.178,0.189-0.244-0.024-0.384  c-0.068-0.045-0.129-0.141-0.042-0.175c0.155-0.063,0.197-0.323,0.435-0.222c0-0.368,0-0.714,0-1.073c-0.18,0-0.348,0-0.514,0  c-0.034-0.233,0.114-0.539,0.262-0.611c0.125-0.062,0.266-0.133,0.337-0.242c0.102-0.153,0.047-0.348,0.024-0.525  c-0.003-0.025-0.043-0.048-0.065-0.07c-0.021-0.021-0.048-0.035-0.061-0.059c-0.04-0.079-0.276-0.238-0.354-0.229  c-0.104,0.015-0.209,0.038-0.314,0.054c-0.018,0.003-0.051-0.003-0.054-0.013c-0.042-0.135-0.175-0.146-0.272-0.166  c-0.142-0.028-0.293-0.007-0.45-0.007c-0.005-0.007-0.024-0.048-0.051-0.097c0.108,0.02,0.115-0.042,0.114-0.123  c-0.001-0.125-0.111-0.147-0.185-0.185c-0.11-0.056-0.193,0.048-0.237,0.124c-0.028,0.05,0.02,0.143,0.038,0.242  c0.002-0.001-0.033,0.037-0.066,0.035C64.178,9.65,63.93,9.6,63.749,9.835c-0.011,0.014-0.062,0.003-0.091-0.004  c-0.032-0.007-0.065-0.036-0.094-0.029c-0.125,0.029-0.253,0.005-0.383,0.074c-0.144,0.075-0.19,0.216-0.3,0.309  c-0.015,0.012,0.007,0.063,0.01,0.098c0.002,0.021,0.009,0.042,0.002,0.059c-0.077,0.203,0.078,0.535,0.293,0.592  c0.136,0.036,0.252,0.052,0.27,0.232c0.012,0.118,0.071,0.232,0.121,0.379c-0.271,0-0.498,0-0.72,0c0,0.36,0,0.703,0,1.055  c0.093,0,0.172,0,0.228,0c0.057,0.068,0.09,0.137,0.145,0.171c0.163,0.103,0.171,0.154,0.015,0.25  c-0.148,0.091-0.155,0.237-0.026,0.351c0.04,0.035,0.077,0.101,0.077,0.151c0.005,0.806,0.004,1.61,0.003,2.415  c0,0.029-0.005,0.059-0.009,0.107c-0.73,0.029-1.457,0.066-2.178,0.286c0-1.661,0-3.298,0-4.944c-1.37,0-2.727,0-4.063,0  c0.383-0.097,0.783-0.192,1.179-0.304c0.065-0.02,0.118-0.107,0.163-0.173c0.07-0.106,0.001-0.194-0.053-0.284  c-0.078-0.131-0.053-0.194,0.088-0.252c0.077-0.032,0.151-0.072,0.241-0.115c-0.031-0.046-0.067-0.092-0.094-0.142  c-0.021-0.04-0.06-0.106-0.044-0.124c0.032-0.041,0.094-0.081,0.145-0.082C58.879,9.912,58.983,9.789,58.934,9.583z"/>
<script xmlns=""/></svg>